<?xml version="1.0" encoding="utf-8"?>
<!-- Generator: Adobe Illustrator 27.5.0, SVG Export Plug-In . SVG Version: 6.00 Build 0)  -->
<svg version="1.1" id="_x2DC_รรฐ_x5F_1" xmlns="http://www.w3.org/2000/svg" xmlns:xlink="http://www.w3.org/1999/xlink" x="0px"
	 y="0px" viewBox="0 0 2500 1664" style="enable-background:new 0 0 2500 1664;" xml:space="preserve">
<rect style="fill:#FFFFFF;" width="2500" height="1664"/>
<rect x="395.194" y="990.172" style="fill:#625EF3;" width="392.672" height="78.901"/>
<rect x="430.058" y="1069.65" style="fill:#625EF3;" width="403.682" height="78.901"/>
<rect x="430.058" y="1148.927" style="fill:#625EF3;" width="403.682" height="78.901"/>
<rect x="442.902" y="1228.606" style="fill:#625EF3;" width="403.682" height="78.901"/>
<rect x="398.798" y="1308.084" style="fill:#625EF3;" width="429.436" height="78.901"/>
<rect x="452.077" y="1387.562" style="fill:#625EF3;" width="403.682" height="78.901"/>
<rect x="659.177" y="1387.562" style="fill:#625EF3;" width="332.969" height="78.901"/>
<path style="fill:#FFFFFF;" d="M546.919,1148.968c-0.829,0-1.5-0.672-1.5-1.5v-54.738c0-0.828,0.671-1.5,1.5-1.5s1.5,0.672,1.5,1.5
	v54.738C548.419,1148.296,547.748,1148.968,546.919,1148.968z"/>
<path style="fill:#FFFFFF;" d="M588.446,1148.968c-0.829,0-1.5-0.672-1.5-1.5v-54.738c0-0.828,0.671-1.5,1.5-1.5s1.5,0.672,1.5,1.5
	v54.738C589.946,1148.296,589.274,1148.968,588.446,1148.968z"/>
<path style="fill:#FFFFFF;" d="M714.282,1148.968c-0.829,0-1.5-0.672-1.5-1.5v-54.738c0-0.828,0.671-1.5,1.5-1.5s1.5,0.672,1.5,1.5
	v54.738C715.782,1148.296,715.111,1148.968,714.282,1148.968z"/>
<path style="fill:#FFFFFF;" d="M517.977,1068.433c-0.829,0-1.5-0.672-1.5-1.5v-54.739c0-0.828,0.671-1.5,1.5-1.5
	c0.829,0,1.5,0.672,1.5,1.5v54.739C519.477,1067.761,518.806,1068.433,517.977,1068.433z"/>
<path style="fill:#FFFFFF;" d="M546.919,1068.433c-0.829,0-1.5-0.672-1.5-1.5v-54.739c0-0.828,0.671-1.5,1.5-1.5s1.5,0.672,1.5,1.5
	v54.739C548.419,1067.761,547.748,1068.433,546.919,1068.433z"/>
<path style="fill:#FFFFFF;" d="M624.938,1068.433c-0.829,0-1.5-0.672-1.5-1.5v-54.739c0-0.828,0.671-1.5,1.5-1.5s1.5,0.672,1.5,1.5
	v54.739C626.438,1067.761,625.767,1068.433,624.938,1068.433z"/>
<path style="fill:#FFFFFF;" d="M517.977,1229.503c-0.829,0-1.5-0.672-1.5-1.5v-54.738c0-0.828,0.671-1.5,1.5-1.5
	c0.829,0,1.5,0.672,1.5,1.5v54.738C519.477,1228.831,518.806,1229.503,517.977,1229.503z"/>
<path style="fill:#FFFFFF;" d="M546.919,1229.503c-0.829,0-1.5-0.672-1.5-1.5v-54.738c0-0.828,0.671-1.5,1.5-1.5s1.5,0.672,1.5,1.5
	v54.738C548.419,1228.831,547.748,1229.503,546.919,1229.503z"/>
<path style="fill:#FFFFFF;" d="M624.938,1229.503c-0.829,0-1.5-0.672-1.5-1.5v-54.738c0-0.828,0.671-1.5,1.5-1.5s1.5,0.672,1.5,1.5
	v54.738C626.438,1228.831,625.767,1229.503,624.938,1229.503z"/>
<path style="fill:#FFFFFF;" d="M802.368,1467.964c-0.829,0-1.5-0.672-1.5-1.5v-54.739c0-0.828,0.671-1.5,1.5-1.5s1.5,0.672,1.5,1.5
	v54.739C803.868,1467.292,803.196,1467.964,802.368,1467.964z"/>
<path style="fill:#FFFFFF;" d="M831.31,1467.964c-0.829,0-1.5-0.672-1.5-1.5v-54.739c0-0.828,0.671-1.5,1.5-1.5
	c0.829,0,1.5,0.672,1.5,1.5v54.739C832.81,1467.292,832.139,1467.964,831.31,1467.964z"/>
<path style="fill:#FFFFFF;" d="M909.329,1467.964c-0.829,0-1.5-0.672-1.5-1.5v-54.739c0-0.828,0.671-1.5,1.5-1.5
	c0.829,0,1.5,0.672,1.5,1.5v54.739C910.829,1467.292,910.157,1467.964,909.329,1467.964z"/>
<path style="fill:#FFFFFF;" d="M588.446,1467.964c-0.829,0-1.5-0.672-1.5-1.5v-54.739c0-0.828,0.671-1.5,1.5-1.5s1.5,0.672,1.5,1.5
	v54.739C589.946,1467.292,589.274,1467.964,588.446,1467.964z"/>
<path style="fill:#FFFFFF;" d="M617.388,1467.964c-0.829,0-1.5-0.672-1.5-1.5v-54.739c0-0.828,0.671-1.5,1.5-1.5s1.5,0.672,1.5,1.5
	v54.739C618.888,1467.292,618.217,1467.964,617.388,1467.964z"/>
<path style="fill:#FFFFFF;" d="M695.407,1467.964c-0.829,0-1.5-0.672-1.5-1.5v-54.739c0-0.828,0.671-1.5,1.5-1.5
	c0.829,0,1.5,0.672,1.5,1.5v54.739C696.907,1467.292,696.235,1467.964,695.407,1467.964z"/>
<path style="fill:#FFFFFF;" d="M670.239,1308.78c-0.829,0-1.5-0.672-1.5-1.5v-54.739c0-0.828,0.671-1.5,1.5-1.5
	c0.829,0,1.5,0.672,1.5,1.5v54.739C671.739,1308.108,671.068,1308.78,670.239,1308.78z"/>
<path style="fill:#FFFFFF;" d="M699.182,1308.78c-0.829,0-1.5-0.672-1.5-1.5v-54.739c0-0.828,0.671-1.5,1.5-1.5
	c0.829,0,1.5,0.672,1.5,1.5v54.739C700.682,1308.108,700.01,1308.78,699.182,1308.78z"/>
<path style="fill:#FFFFFF;" d="M777.2,1308.78c-0.829,0-1.5-0.672-1.5-1.5v-54.739c0-0.828,0.671-1.5,1.5-1.5s1.5,0.672,1.5,1.5
	v54.739C778.7,1308.108,778.029,1308.78,777.2,1308.78z"/>
<path style="fill:#FFFFFF;" d="M543.144,1308.78c-0.829,0-1.5-0.672-1.5-1.5v-54.739c0-0.828,0.671-1.5,1.5-1.5s1.5,0.672,1.5,1.5
	v54.739C544.644,1308.108,543.973,1308.78,543.144,1308.78z"/>
<path style="fill:#FFFFFF;" d="M572.087,1308.78c-0.829,0-1.5-0.672-1.5-1.5v-54.739c0-0.828,0.671-1.5,1.5-1.5
	c0.829,0,1.5,0.672,1.5,1.5v54.739C573.587,1308.108,572.915,1308.78,572.087,1308.78z"/>
<path style="fill:#FFFFFF;" d="M650.105,1308.78c-0.829,0-1.5-0.672-1.5-1.5v-54.739c0-0.828,0.671-1.5,1.5-1.5s1.5,0.672,1.5,1.5
	v54.739C651.605,1308.108,650.934,1308.78,650.105,1308.78z"/>
<path style="fill:#FFFFFF;" d="M709.689,1386.799c-0.829,0-1.5-0.672-1.5-1.5v-54.738c0-0.828,0.671-1.5,1.5-1.5
	c0.829,0,1.5,0.672,1.5,1.5v54.738C711.189,1386.127,710.518,1386.799,709.689,1386.799z"/>
<path style="fill:#FFFFFF;" d="M740.478,1386.799c-0.829,0-1.5-0.672-1.5-1.5v-54.738c0-0.828,0.671-1.5,1.5-1.5
	c0.829,0,1.5,0.672,1.5,1.5v54.738C741.978,1386.127,741.307,1386.799,740.478,1386.799z"/>
<path style="fill:#FFFFFF;" d="M648.111,1386.799c-0.829,0-1.5-0.672-1.5-1.5v-54.738c0-0.828,0.671-1.5,1.5-1.5s1.5,0.672,1.5,1.5
	v54.738C649.611,1386.127,648.94,1386.799,648.111,1386.799z"/>
<path style="fill:#FFFFFF;" d="M678.9,1386.799c-0.829,0-1.5-0.672-1.5-1.5v-54.738c0-0.828,0.671-1.5,1.5-1.5s1.5,0.672,1.5,1.5
	v54.738C680.4,1386.127,679.729,1386.799,678.9,1386.799z"/>
<path style="fill:#FFFFFF;" d="M835.05,1151.567H427.096c-0.829,0-1.5-0.672-1.5-1.5s0.671-1.5,1.5-1.5H835.05
	c0.829,0,1.5,0.672,1.5,1.5S835.878,1151.567,835.05,1151.567z"/>
<path style="fill:#FFFFFF;" d="M848.019,1230.106H428.275c-0.829,0-1.5-0.672-1.5-1.5s0.671-1.5,1.5-1.5h419.745
	c0.829,0,1.5,0.672,1.5,1.5S848.848,1230.106,848.019,1230.106z"/>
<path style="fill:#FFFFFF;" d="M848.019,1309.584H361.069c-0.829,0-1.5-0.672-1.5-1.5s0.671-1.5,1.5-1.5h486.951
	c0.829,0,1.5,0.672,1.5,1.5S848.848,1309.584,848.019,1309.584z"/>
<path style="fill:#FFFFFF;" d="M996.581,1389.063H362.248c-0.829,0-1.5-0.672-1.5-1.5s0.671-1.5,1.5-1.5h634.333
	c0.829,0,1.5,0.672,1.5,1.5S997.409,1389.063,996.581,1389.063z"/>
<path style="fill:#FFFFFF;" d="M835.05,1070.212H394.672c-0.829,0-1.5-0.672-1.5-1.5s0.671-1.5,1.5-1.5H835.05
	c0.829,0,1.5,0.672,1.5,1.5S835.878,1070.212,835.05,1070.212z"/>
<path style="fill:#625EF3;" d="M1126.939,179.104c6.934,0,13.986-0.813,20.776,0.173c13.24,1.923,22.38,13.705,22.766,28.046
	c0.157,5.836-0.118,11.692,0.231,17.513c0.633,10.561,6.615,17.46,16.075,21.312c9.7,3.949,18.612,1.913,26.312-4.988
	c4.071-3.649,7.761-7.721,11.645-11.581c10.671-10.605,28.076-10.663,38.754-0.097c7.915,7.832,15.815,15.681,23.66,23.584
	c11.646,11.733,11.649,27.492,0.003,39.338c-3.58,3.641-7.405,7.042-10.979,10.688c-7.712,7.868-9.204,17.353-5.254,27.164
	c3.801,9.441,11.216,15.044,21.815,15.449c6.372,0.244,12.811-0.172,19.114,0.584c14.7,1.762,22.229,8.431,23.489,23.182
	c1.158,13.562,0.989,27.387-0.193,40.956c-1.206,13.855-11.786,22.153-25.78,22.343c-5.476,0.074-10.963-0.181-16.428,0.073
	c-11.228,0.521-18.729,6.418-22.629,16.787c-3.704,9.848-1.429,18.449,5.907,25.94c5.213,5.323,10.949,10.365,15.083,16.462
	c7.079,10.441,5.167,23.96-3.662,32.93c-8.066,8.195-16.196,16.329-24.438,24.346c-10.485,10.2-26.671,10.489-37.587,0.678
	c-3.932-3.534-7.499-7.472-11.322-11.132c-8.241-7.888-17.79-10.744-28.497-6c-10.464,4.636-15.778,13.048-15.786,24.625
	c-0.004,5.294,0.136,10.593-0.037,15.882c-0.491,14.986-12.191,26.206-27.214,26.223c-10.589,0.012-21.185-0.26-31.764,0.066
	c-14.682,0.453-27.356-11.229-27.81-27.5c-0.148-5.29-0.016-10.588-0.025-15.882c-0.018-10.535-6.063-19.653-15.61-23.479
	c-10.378-4.159-19.608-2.286-27.629,5.453c-3.546,3.422-6.928,7.013-10.477,10.432c-11.589,11.164-28.126,11.197-39.623-0.007
	c-7.964-7.761-15.83-15.625-23.634-23.547c-10.992-11.159-10.873-27.389,0.185-38.593c3.206-3.248,6.399-6.512,9.69-9.674
	c8.152-7.831,10.993-17.18,6.889-27.785c-4.234-10.94-12.753-16.353-24.514-16.55c-5.247-0.088-10.494-0.141-15.741-0.228
	c-15.718-0.261-27.12-11.793-27.134-27.443c-0.009-9.676,0.526-19.387-0.121-29.02c-1.057-15.743,10.375-29.863,29.393-30.072
	c4.381-0.048,8.763,0.001,13.144-0.013c12.064-0.037,20.492-5.277,24.612-15.408c4.407-10.835,1.828-20.237-6.077-28.452
	c-2.658-2.762-5.357-5.49-8.135-8.129c-13.932-13.236-13.966-29.377-0.046-42.877c7.333-7.111,14.661-14.227,22.011-21.321
	c11.167-10.777,28.142-10.575,39.183,0.301c4.92,4.847,9.573,10.216,15.249,13.995c15.934,10.609,37.383-0.604,38.376-19.695
	c0.388-7.451-0.078-14.998,0.929-22.353c1.867-13.642,13.157-22.836,26.971-22.861c5.294-0.01,10.589-0.002,15.883-0.002
	C1126.939,178.997,1126.939,179.05,1126.939,179.104z M1039.347,389.156c-0.487,48.469,38.71,87.26,86.337,87.662
	c49.537,0.418,89.148-38.708,88.708-88.337c-0.433-48.836-39.66-86.431-86.951-86.839
	C1077.963,301.215,1038.664,341.844,1039.347,389.156z"/>
<path style="fill:#FFFFFF;" d="M1094.598,1466.124H568.533c-28.505,0-51.613-23.108-51.613-51.613V381.683
	c0-28.505,23.108-51.613,51.613-51.613h526.065c28.505,0,51.613,23.108,51.613,51.613v1032.829
	C1146.21,1443.016,1123.103,1466.124,1094.598,1466.124z"/>
<path style="fill:#292929;" d="M1094.598,1467.624H568.533c-29.287,0-53.113-23.826-53.113-53.112V381.683
	c0-29.287,23.827-53.113,53.113-53.113h526.064c29.287,0,53.113,23.826,53.113,53.113v1032.829
	C1147.71,1443.798,1123.884,1467.624,1094.598,1467.624z M568.533,331.57c-27.632,0-50.113,22.48-50.113,50.113v1032.829
	c0,27.632,22.481,50.112,50.113,50.112h526.064c27.632,0,50.113-22.48,50.113-50.112V381.683c0-27.632-22.48-50.113-50.113-50.113
	H568.533z"/>
<path style="fill:#292929;" d="M1075.37,1435.381H587.761c-21.072,0-38.216-17.144-38.216-38.216V399.029
	c0-21.072,17.144-38.216,38.216-38.216h487.609c21.072,0,38.216,17.143,38.216,38.216v998.136
	C1113.586,1418.237,1096.442,1435.381,1075.37,1435.381z M587.761,363.814c-19.418,0-35.216,15.798-35.216,35.216v998.136
	c0,19.418,15.798,35.216,35.216,35.216h487.609c19.418,0,35.216-15.798,35.216-35.216V399.029c0-19.418-15.798-35.216-35.216-35.216
	H587.761z"/>
<rect x="753.619" y="399.138" style="fill:#292929;" width="141.218" height="3"/>
<path style="fill:#FFFFFF;" d="M1849.18,1245.227c-45.578-153.526-128.755-464.56-48.381-505.156
	c13.457-6.797,27.08-3.781,31.305-2.846c111.422,24.664,113.845,409.068,113.838,478.119L1849.18,1245.227z"/>
<path style="fill:#292929;" d="M1847.742,1245.654c-62.534-210.643-121.557-469.578-47.619-506.922
	c13.932-7.037,27.76-3.978,32.304-2.972c47.686,10.555,81.286,85.812,99.869,223.679c13.191,97.863,15.151,202.339,15.146,255.905
	h-3c0.011-105.966-8.083-453.506-112.662-476.655c-4.287-0.949-17.328-3.834-30.305,2.72
	c-34.281,17.314-41.763,87.515-22.237,208.651c12.707,78.832,36.723,177.997,71.379,294.739L1847.742,1245.654z"/>
<path style="fill:#FFFFFF;" d="M1991.477,1258.034c16.748-140.099,54.147-385.698,119.53-389.895
	c8.666-0.556,15.431,3.281,17.076,4.269c59.842,35.929-23.543,282.919-60.688,385.626H1991.477z"/>
<path style="fill:#292929;" d="M2068.805,1258.544l-2.82-1.02c30.621-84.668,53.049-157.905,66.662-217.678
	c21.662-95.119,19.867-151.021-5.336-166.152c-2.306-1.385-8.499-4.553-16.208-4.059c-27.892,1.79-53.678,49.852-76.643,142.848
	c-15.586,63.118-29.546,145.793-41.493,245.729l-2.979-0.355c11.961-100.058,25.944-182.855,41.56-246.093
	c23.313-94.412,50.016-143.238,79.363-145.122c8.533-0.547,15.396,2.951,17.944,4.48c26.439,15.874,28.699,72.865,6.716,169.391
	C2121.932,1100.405,2099.468,1173.762,2068.805,1258.544z"/>
<path style="fill:#FFFFFF;" d="M1885.375,1258.034c-19.576-152.615-64.07-559.976,42.068-596.226c3.01-1.028,17.314-5.573,32.728,0
	c98.397,35.576,48.923,413.616,20.028,596.226H1885.375z"/>
<path style="fill:#292929;" d="M1981.681,1258.269l-2.963-0.469c22.172-140.121,34.857-258.908,37.703-353.062
	c4.384-145.059-14.712-226.317-56.759-241.519c-14.296-5.169-27.904-1.3-31.733,0.009c-24.094,8.229-41.968,37.132-53.127,85.907
	c-9.481,41.446-14.203,97.682-14.035,167.146c0.226,93.405,9.006,208.323,26.097,341.563l-2.976,0.381
	c-17.107-133.363-25.896-248.407-26.121-341.938c-0.373-153.994,22.907-240.09,69.192-255.898c5.209-1.78,18.925-5.343,33.723,0.009
	c43.403,15.693,63.166,97.931,58.737,244.431C2016.57,999.108,2003.873,1118.022,1981.681,1258.269z"/>
<path style="fill:#292929;" d="M2019.938,1279.455c-0.13,0-0.263-0.017-0.395-0.053c-0.799-0.217-1.271-1.041-1.054-1.841
	l75.418-277.48c0.218-0.799,1.039-1.274,1.841-1.054c0.799,0.217,1.271,1.041,1.054,1.841l-75.418,277.48
	C2021.202,1279.017,2020.598,1279.455,2019.938,1279.455z"/>
<path style="fill:#292929;" d="M1927.883,1279.455c-0.006,0-0.013,0-0.02,0c-0.828-0.011-1.491-0.691-1.48-1.52l6.676-513.693
	c0.011-0.822,0.681-1.48,1.5-1.48c0.006,0,0.013,0,0.02,0c0.828,0.011,1.491,0.691,1.48,1.519l-6.676,513.693
	C1929.372,1278.796,1928.702,1279.455,1927.883,1279.455z"/>
<path style="fill:#E7ECF2;" d="M2156.756,1250.876l-33.482,216.335h-272.13l-33.482-216.335c-1.381-8.951,5.55-17.033,14.599-17.033
	h309.896C2151.206,1233.843,2158.136,1241.926,2156.756,1250.876z"/>
<path style="fill:#FFFFFF;" d="M1438.554,1082.381c148.521-39.914,267.669-71.04,351.998-95.386
	c22.24-6.421,67.722-19.779,108.892,1.688c0,0,38.164,19.9,56.556,68.374c29.754,78.418-60.184,211.702-216.095,334.272
	c-210.186-94.542-420.372-189.083-630.558-283.625l23.635-113.956L1438.554,1082.381z"/>
<path style="fill:#292929;" d="M1740.118,1393.069l-0.828-0.372l-631.657-284.118l24.209-116.723l1.558,0.452l305.169,88.515
	c40.384-10.852,78.079-20.917,114.533-30.65c94.298-25.177,175.735-46.921,237.033-64.618l0.449-0.13
	c22.11-6.385,68.123-19.672,109.552,1.929c0.387,0.202,38.883,20.725,57.266,69.172c14.614,38.518,1.277,91.055-38.57,151.933
	c-38.914,59.453-100.466,123.097-178,184.051L1740.118,1393.069z M1111.06,1106.831l628.632,282.758
	c76.947-60.586,138.01-123.771,176.63-182.773c39.3-60.042,52.535-111.644,38.275-149.226
	c-17.961-47.336-55.472-67.38-55.849-67.576c-40.36-21.046-85.594-7.985-107.332-1.706l-0.449,0.13
	c-61.327,17.705-142.778,39.452-237.091,64.634c-36.576,9.767-74.398,19.864-114.934,30.758l-0.405,0.109l-0.402-0.117
	l-304.014-88.18L1111.06,1106.831z"/>
<path style="fill:#292929;" d="M1578.87,719.957l-57.161,176.548c-3.111,9.609,4.143,19.43,14.242,19.281l83.944-1.234
	c6.174-0.091,11.636-4.019,13.688-9.843c20.949-59.475,41.898-118.951,62.847-178.426c3.45-9.795-4.038-19.991-14.416-19.63
	c-29.876,1.037-59.753,2.075-89.629,3.112C1586.183,709.981,1580.781,714.055,1578.87,719.957z"/>
<path style="fill:#625EF3;" d="M1430.957,733.759c-26.754-9.742-52.271-11.568-91.165-14.35c-30.58-2.188-72.557-2.961-89.477,0
	c-66.572,11.649-117.851,146.304-135.059,317.389c100.169,15.757,200.338,31.514,300.507,47.271
	c109.352-70.836,153.32-184.998,120.709-258.301C1518.947,786.375,1475.368,749.931,1430.957,733.759z"/>
<path style="fill:#FFFFFF;" d="M1505.239,989.528c87.122,97.889,183.187,138.914,216.939,113.956
	c34.39-25.43,22.97-133.327-53.18-249.86l-125.774,6.753L1505.239,989.528z"/>
<path style="fill:#292929;" d="M1696.419,1112.086c-44.853,0-121-41.449-192.3-121.561l-0.554-0.622l38.52-130.967l127.697-6.856
	l0.473,0.724c35.141,53.776,59.383,110.474,68.263,159.647c8.181,45.311,2.551,78.931-15.447,92.239
	C1716.385,1109.634,1707.326,1112.086,1696.419,1112.086z M1506.913,989.152c40.195,45.029,85.441,81.265,127.476,102.077
	c38.766,19.195,70.438,23.22,86.898,11.049c16.794-12.419,22.132-45.8,14.277-89.294c-8.77-48.567-32.679-104.584-67.349-157.816
	l-123.852,6.651L1506.913,989.152z"/>
<path style="fill:#FFFFFF;" d="M1687.569,1463.924l-731.853-294.598c1.81,25.297,12.277,131.545,101.294,214.407
	c67.336,62.68,142.953,77.847,172.616,82.188L1687.569,1463.924z"/>
<path style="fill:#292929;" d="M1229.628,1467.42c-0.072,0-0.146-0.005-0.219-0.016c-37.539-5.493-109.985-23.525-173.42-82.574
	C972.483,1307.1,957,1208.302,954.22,1169.434c-0.037-0.517,0.194-1.015,0.613-1.319c0.418-0.306,0.965-0.37,1.443-0.18
	l731.854,294.598c0.769,0.31,1.141,1.184,0.831,1.952s-1.184,1.142-1.952,0.831l-729.614-293.696
	c3.218,40.051,19.578,135.562,100.638,211.016c62.839,58.493,134.618,76.358,171.811,81.801c0.82,0.12,1.387,0.882,1.267,1.701
	C1231.001,1466.883,1230.36,1467.42,1229.628,1467.42z"/>
<path style="fill:#292929;" d="M1328.874,1464.289c-1.696-6.76-3.067-13.625-4.072-20.404c-4.279-28.835-2.563-58.008,5.1-86.707
	l2.898,0.773c-7.557,28.302-9.25,57.065-5.031,85.494c0.991,6.682,2.343,13.448,4.016,20.113L1328.874,1464.289z"/>
<path style="fill:#292929;" d="M1528.031,1236.667c-0.466,0-0.926-0.217-1.219-0.624c-0.483-0.673-0.331-1.61,0.342-2.094
	l173.2-124.58c0.674-0.481,1.61-0.331,2.094,0.342s0.331,1.61-0.342,2.094l-173.2,124.58
	C1528.642,1236.575,1528.335,1236.667,1528.031,1236.667z"/>
<path style="fill:#FFFFFF;" d="M1243.562,1025.825c4.844,18.347,17.075,54.508,48.959,87.683c7.213,7.505,38.5,38.858,64.153,44
	c56.797,11.384,144.269-94.034,203.661-264.057c14.29-1.378,31.561-3.304,51.263-6.062c16.329-2.285,28.628-4.343,37.141-14.35
	c3.139-3.69,4.899-7.444,5.909-10.13c9.79-3.574,51.651-19.358,49.803-33.765c-0.356-2.774-2.451-6.425-10.129-10.129
	c8.305-9.51,11.4-16.263,9.285-20.259c-4.329-8.181-30.496-4.805-78.503,10.13c22.876-15.366,33.288-25.496,31.233-30.388
	c-3.146-7.489-35.503-2.706-97.074,14.35c1.407-7.316,2.814-14.631,4.221-21.947c-5.571,1.273-14.099,3.677-23.635,8.441
	c-28.828,14.401-43.317,38.603-49.803,48.959c-18.944,30.247-51.097,72.477-97.918,129.995c-8.16-11.255-16.32-22.51-24.479-33.765
	C1326.286,958.295,1284.924,992.06,1243.562,1025.825z"/>
<path style="fill:#292929;" d="M1365.289,1159.847c-3.046,0-6.015-0.288-8.91-0.868c-25.557-5.122-56.167-35.303-64.939-44.432
	c-29.633-30.831-43.181-65.057-49.328-88.339l-0.247-0.934l0.748-0.611l125.317-102.3l24.266,33.472
	c48.073-59.107,78.778-99.909,96.578-128.331l0.615-0.983c6.966-11.156,21.462-34.37,49.79-48.521
	c7.549-3.771,15.613-6.652,23.971-8.562l2.241-0.512l-4.199,21.833c80.897-22.271,94.116-18.583,96.528-12.842
	c1.505,3.581-0.099,9.867-23.82,26.725c57.484-17.081,68.144-12.046,71.034-6.586c2.34,4.42-0.354,11.132-8.232,20.491
	c5.637,3.046,8.742,6.542,9.238,10.408c1.774,13.831-30.343,27.854-50.137,35.131c-1.465,3.691-3.455,7.028-5.92,9.926
	c-9.208,10.824-23.23,12.787-38.076,14.864c-16.764,2.346-33.705,4.356-50.372,5.977c-28.17,80.392-64.633,151.24-102.726,199.584
	C1425.156,1137.018,1392.392,1159.847,1365.289,1159.847z M1245.26,1026.375c6.171,22.914,19.548,56.136,48.341,86.094
	c8.62,8.969,38.666,38.617,63.367,43.568c27.501,5.511,62.797-17.024,99.384-63.459c38.035-48.27,74.46-119.163,102.566-199.622
	l0.316-0.906l0.956-0.092c16.932-1.633,34.158-3.67,51.199-6.054c17.259-2.415,28.309-4.552,36.207-13.837
	c2.384-2.802,4.283-6.061,5.646-9.686l0.243-0.644l0.646-0.236c31.676-11.567,49.93-23.592,48.83-32.165
	c-0.407-3.173-3.534-6.191-9.293-8.969l-1.773-0.855l1.295-1.483c9.735-11.149,10.316-16.252,9.089-18.57
	c-2.206-4.171-15.111-8.308-76.731,10.86l-9.812,3.053l8.53-5.73c30.047-20.183,31.469-26.698,30.686-28.563
	c-0.574-1.366-4.16-4.21-25.025-1.127c-16.042,2.372-39.683,7.87-70.266,16.341l-2.33,0.645l4.238-22.036
	c-7.323,1.842-14.395,4.456-21.053,7.781c-27.571,13.774-41.765,36.503-48.585,47.426l-0.617,0.987
	c-18.266,29.164-48.498,69.302-98.026,130.146l-1.231,1.514l-24.693-34.059L1245.26,1026.375z"/>
<path style="fill:#FFFFFF;" d="M1374.401,639.218c-1.258,10.993-3.996,25.385-10.13,41.362
	c-6.746,17.571-15.302,31.073-22.297,40.455c23.541,44.526,48.366,71.453,61.971,66.748c15.608-5.398,13.19-51.307,12.662-59.933
	C1402.538,698.306,1388.469,668.762,1374.401,639.218z"/>
<path style="fill:#FFFFFF;" d="M1495.855,629.203c-5.559-20.67-24.705-62.268-57.723-61.736
	c-23.98,0.386-45.363,26.317-52.768,55.252c-5.03-8.878-12.795-13.977-19.574-11.995c-8.725,2.552-12.51,15.865-8.454,29.736
	c4.056,13.871,14.418,23.048,23.143,20.496c1.37-0.401,2.617-1.067,3.732-1.958c5.59,47.355,24.976,81.228,49.705,85.389
	c8.211,1.382,14.83-0.88,18.473-2.173C1486.43,730.131,1508.116,674.796,1495.855,629.203z"/>
<path style="fill:#292929;" d="M1439.092,746.318c-1.716,0-3.53-0.133-5.425-0.452c-24.817-4.175-44.57-37.164-50.652-84.313
	c-0.679,0.349-1.386,0.63-2.115,0.844c-4.731,1.385-9.966-0.18-14.738-4.406c-4.579-4.056-8.226-10.132-10.265-17.108
	c-2.04-6.976-2.243-14.059-0.569-19.944c1.742-6.13,5.309-10.269,10.042-11.653c6.578-1.926,13.968,1.866,19.453,9.754
	c7.848-26.596,28.111-52.667,53.285-53.072c0.214-0.003,0.429-0.005,0.641-0.005c32.928,0,52.685,41.021,58.555,62.852l0,0
	c5.908,21.966,4.297,47.481-4.419,70.002c-8.729,22.555-23.306,38.888-39.993,44.812
	C1450.229,744.573,1445.313,746.318,1439.092,746.318z M1385.384,656.14l0.316,2.683c5.556,47.061,24.579,80.067,48.465,84.086
	c8.001,1.347,14.565-0.987,17.722-2.108c33.367-11.844,54.428-66.928,42.52-111.207l0,0c-5.663-21.056-24.553-60.631-55.658-60.631
	c-0.198,0-0.393,0.002-0.592,0.005c-24.451,0.393-44.7,28.18-51.339,54.125l-0.923,3.606l-1.835-3.239
	c-4.802-8.473-11.972-13.012-17.849-11.294c-3.707,1.085-6.548,4.491-7.998,9.594c-1.521,5.348-1.321,11.841,0.563,18.282
	c1.884,6.441,5.213,12.018,9.375,15.704c3.972,3.517,8.202,4.857,11.907,3.772c1.153-0.337,2.235-0.905,3.217-1.69L1385.384,656.14z
	"/>
<path style="fill:#292929;" d="M1432.645,608.829c-2.553,12.068-10.962,21.793-22.092,25.264
	c-11.578,3.611-21.506-0.981-23.906-2.173c-0.259-8.899-5.663-16.344-13.04-18.473c-6.891-1.989-12.871,1.42-14.126,2.173
	c0.016-2.813,1.016-46.924,37.711-69.256c16.798-10.223,33.924-11.529,45.349-10.869c7.946,0.459,15.904-0.089,23.715-1.621
	c12.62-2.475,33.275-3.604,53.333,8.27c21.667,12.826,41.389,40.098,35.453,71.75c-5.057,26.966-27.121,48.514-55.384,53.885
	c0.923-6.323,1.691-17.468-2.173-30.426c-2.929-9.824-7.454-17.114-10.867-21.733c-0.852,1.979-6.15,13.795-17.676,16.844
	C1455.754,635.953,1439.152,626.711,1432.645,608.829z"/>
<path style="fill:#292929;" d="M1222.02,1044.715c-0.159,0-0.319-0.025-0.474-0.077c-0.483-0.161-0.851-0.556-0.978-1.048
	l-48.521-187.902c-0.208-0.802,0.275-1.62,1.077-1.827c0.804-0.206,1.621,0.274,1.827,1.077l47.941,185.658l19.923-15.938
	c0.646-0.519,1.591-0.413,2.108,0.234c0.518,0.646,0.413,1.591-0.234,2.107l-21.733,17.386
	C1222.688,1044.602,1222.356,1044.715,1222.02,1044.715z"/>
<path style="fill:#292929;" d="M1367.63,925.185c-0.659,0-1.264-0.438-1.446-1.105l-25.657-94.027
	c-0.218-0.799,0.253-1.624,1.053-1.842c0.798-0.217,1.623,0.253,1.842,1.052l25.657,94.028c0.218,0.799-0.253,1.624-1.053,1.842
	C1367.894,925.168,1367.761,925.185,1367.63,925.185z"/>
<path style="fill:#292929;" d="M1362.065,998.063l-2.342-1.875c0.27-0.337,27.069-33.834,31.251-38.852l2.305,1.92
	C1389.116,964.251,1362.336,997.725,1362.065,998.063z"/>
<path style="fill:#292929;" d="M1620.819,1049.062c-0.598,0-1.163-0.359-1.396-0.949l-60.853-154.304
	c-0.304-0.771,0.074-1.643,0.845-1.946c0.769-0.304,1.643,0.073,1.946,0.845l60.853,154.304c0.304,0.771-0.074,1.643-0.845,1.946
	C1621.189,1049.028,1621.003,1049.062,1620.819,1049.062z"/>
<path style="fill:#FFFFFF;" d="M1137.902,1059.999l417.472,168.271c4.731,1.907,9.511,3.685,14.32,5.388
	c25.343,8.976,53.492,21.575,82.423,39.495c74.233,45.979,120.763,106.636,148.796,154.216c10.67,18.109-3.133,39.736-24.128,38.723
	c-35.12-1.695-107.168,0.276-163.572-3.431c-37.138-2.441-67.513-9.624-76.03-11.11l-93.564-16.327
	c-77.367-14.55-172.013-39.302-275.183-82.724c-62.048-26.114-116.775-54.603-164.117-82.612
	c-53.712-31.778-72.793-100.925-41.475-154.906c0.428-0.738,0.866-1.476,1.315-2.212c18.784-30.876,50.264-52.177,86.31-60.286
	C1079.647,1045.919,1110.162,1048.818,1137.902,1059.999z"/>
<path style="fill:#292929;" d="M1778.21,1467.626c-0.497,0-0.996-0.012-1.498-0.036c-14.017-0.676-33.678-0.766-56.444-0.87
	c-34.343-0.157-73.268-0.335-107.154-2.563c-30.727-2.021-57.126-7.332-69.813-9.886c-2.738-0.551-4.901-0.985-6.375-1.243
	l-93.564-16.327c-94.446-17.762-187.134-45.625-275.507-82.818c-56.349-23.716-111.627-51.541-164.298-82.703
	c-54.624-32.317-73.469-102.726-42.009-156.95c0.434-0.747,0.877-1.494,1.331-2.24c18.517-30.437,50.323-52.659,87.262-60.97
	c29.181-6.563,59.723-3.941,88.324,7.588l417.471,168.271c4.337,1.748,9.001,3.504,14.261,5.366
	c29.014,10.275,56.842,23.61,82.712,39.633c60.741,37.623,110.973,89.682,149.298,154.729c5.183,8.795,5.198,19.143,0.043,27.679
	C1797.158,1462.713,1788.25,1467.626,1778.21,1467.626z M1081.957,1050.49c-10.46,0-20.897,1.147-31.161,3.457
	c-36.149,8.132-67.261,29.856-85.357,59.602c-0.443,0.728-0.876,1.457-1.298,2.187c-30.637,52.806-12.271,121.38,40.941,152.862
	c52.555,31.093,107.711,58.856,163.935,82.52c88.177,37.112,180.66,64.913,274.878,82.632l93.545,16.324
	c1.512,0.264,3.691,0.702,6.451,1.258c12.624,2.54,38.892,7.825,69.419,9.832c33.795,2.222,72.671,2.399,106.971,2.557
	c22.802,0.104,42.493,0.194,56.575,0.874c9.52,0.463,18.061-3.974,22.823-11.859c4.575-7.577,4.554-16.775-0.06-24.604
	c-38.077-64.626-87.97-116.339-148.294-153.702c-25.688-15.91-53.321-29.151-82.134-39.355c-5.3-1.877-10.004-3.647-14.38-5.411
	l-417.472-168.271C1119.373,1054.147,1100.628,1050.49,1081.957,1050.49z"/>
<path style="fill:#292929;" d="M1444.355,1436.236l-2.1-2.143c16.786-16.449,30.714-35.049,41.398-55.282
	c33.043-62.567,28.304-127.563,18.51-171.07l2.926-0.658c9.906,43.999,14.688,109.752-18.783,173.129
	C1475.478,1400.721,1461.363,1419.569,1444.355,1436.236z"/>
<path style="fill:#292929;" d="M1570.714,1456.655l-2.813-1.045c5.463-14.69,9.729-29.882,12.681-45.151
	c11.219-58.143,3.941-118.592-21.631-179.668l2.768-1.158c25.805,61.631,33.142,122.661,21.809,181.396
	C1580.545,1426.46,1576.233,1441.811,1570.714,1456.655z"/>
<path style="fill:#292929;" d="M1341.55,723.068c-0.276,0-0.555-0.076-0.804-0.234c-0.699-0.445-0.905-1.372-0.461-2.071
	c6.39-10.044,12.209-20.592,17.296-31.349c4.476-9.463,8.477-19.283,11.892-29.187c0.27-0.784,1.124-1.2,1.907-0.929
	c0.783,0.27,1.199,1.124,0.929,1.907c-3.45,10.008-7.493,19.93-12.015,29.492c-5.142,10.87-11.021,21.527-17.478,31.677
	C1342.53,722.823,1342.045,723.068,1341.55,723.068z"/>
<path style="fill:#292929;" d="M1377.409,645.917c-0.254,0-0.512-0.065-0.747-0.2c-2.062-1.187-4.963-3.377-7.074-7.077
	c-2.709-4.746-2.642-9.422-2.36-11.787c0.099-0.822,0.862-1.401,1.666-1.313c0.823,0.098,1.41,0.844,1.313,1.667
	c-0.237,1.998-0.295,5.947,1.987,9.945c1.778,3.115,4.226,4.962,5.965,5.963c0.718,0.414,0.965,1.331,0.552,2.048
	C1378.433,645.647,1377.928,645.917,1377.409,645.917z"/>
<path style="fill:#292929;" d="M1580.613,827.387c-0.601,0-1.168-0.364-1.398-0.958c-0.3-0.772,0.083-1.641,0.855-1.941
	l72.805-28.253c0.772-0.3,1.642,0.082,1.941,0.856c0.3,0.772-0.083,1.641-0.855,1.941l-72.805,28.253
	C1580.978,827.354,1580.794,827.387,1580.613,827.387z"/>
<path style="fill:#292929;" d="M1624.079,848.032c-0.598,0-1.163-0.36-1.396-0.95c-0.304-0.77,0.075-1.642,0.846-1.945
	l71.719-28.252c0.77-0.302,1.642,0.075,1.945,0.846s-0.075,1.642-0.846,1.945l-71.719,28.252
	C1624.448,847.999,1624.263,848.032,1624.079,848.032z"/>
<path style="fill:#292929;" d="M1628.427,874.112c-0.588,0-1.146-0.347-1.386-0.923c-0.318-0.765,0.043-1.644,0.808-1.962
	c4.385-1.827,8.824-3.399,13.117-4.92c4.255-1.507,8.654-3.065,12.962-4.86c0.769-0.318,1.644,0.044,1.962,0.808
	c0.318,0.765-0.043,1.643-0.808,1.962c-4.384,1.826-8.822,3.398-13.114,4.919c-4.256,1.507-8.656,3.065-12.965,4.861
	C1628.814,874.075,1628.619,874.112,1628.427,874.112z"/>
<path style="fill:#292929;" d="M760.416,1091.091c-33.183,0-60.179-26.996-60.179-60.179V704.918
	c0-33.183,26.996-60.179,60.179-60.179c33.183,0,60.179,26.996,60.179,60.179v325.994
	C820.595,1064.095,793.599,1091.091,760.416,1091.091z M760.416,647.739c-31.529,0-57.179,25.65-57.179,57.179v325.994
	c0,31.528,25.65,57.179,57.179,57.179c31.528,0,57.179-25.65,57.179-57.179V704.918C817.595,673.39,791.944,647.739,760.416,647.739
	z"/>
<path style="fill:#292929;" d="M789.753,706.257v323.32c0,1.282-0.076,2.543-0.25,3.781c-1.847,15.159-14.767,26.894-30.426,26.894
	c-16.941,0-30.676-13.735-30.676-30.676v-323.32c0-16.941,13.735-30.676,30.676-30.676c8.465,0,16.137,3.434,21.689,8.987
	c4.694,4.694,7.878,10.91,8.737,17.843C789.677,703.671,789.753,704.953,789.753,706.257z"/>
<path style="fill:#625EF3;" d="M815.213,700.857c-0.511-0.011-1.021-0.011-1.532-0.022c-8.204-0.065-16.278,0.467-24.178,1.576
	c-15.517,2.152-30.393,6.455-44.302,12.605c-1.728,0.761-3.445,1.554-5.14,2.38c-1.565,0.761-3.108,1.532-4.64,2.336
	c-2.369,1.239-4.716,2.543-7.02,3.89v288.722c2.304,1.347,4.64,2.63,7.02,3.868c3.195,1.663,6.455,3.216,9.78,4.673
	c13.833,6.063,28.687,10.323,44.302,12.475c6.281,0.869,12.681,1.402,19.179,1.576c0.446,0.022,0.891,0.022,1.337,0.033
	c15.517,0.282,30.622-1.576,44.987-5.346c70.534-18.343,123.584-81.846,124.834-157.553
	C981.393,778.03,908.751,702.487,815.213,700.857z"/>
<path style="fill:#FFFFFF;" d="M955.89,871.46c-1.043,63.373-45.009,118.879-106.926,134.983
	c-11.671,3.053-23.743,4.596-35.924,4.596c-0.88,0-1.75-0.011-2.63-0.022l-0.359-0.011c-0.283,0-0.554-0.011-0.837-0.022
	c-6.563-0.174-13.061-0.782-19.462-1.804c-15.637-2.51-30.687-7.552-44.552-14.931c-3.64-1.934-7.204-4.031-10.671-6.292
	c-2.086-1.358-4.129-2.771-6.129-4.227v-4.075c2.565,1.945,5.205,3.803,7.911,5.564c2.901,1.891,5.868,3.662,8.889,5.324
	c13.811,7.574,28.872,12.746,44.552,15.333c6.444,1.054,12.996,1.673,19.603,1.847c0.283,0.022,0.521,0.022,0.75,0.022l0.38,0.011
	c12.757,0.228,25.427-1.271,37.652-4.466c60.504-15.745,103.47-69.969,104.492-131.875c1.304-79.021-59.222-141.981-137.808-143.35
	l-1.271-0.011c-8.052-0.065-15.984,0.543-23.797,1.837c-13.04,2.141-25.699,6.15-37.837,12.018c-2.26,1.098-4.51,2.26-6.716,3.488
	c-3.032,1.673-5.998,3.466-8.889,5.357c-2.706,1.771-5.346,3.629-7.911,5.574v-4.075c1.999-1.467,4.042-2.88,6.129-4.238
	c3.456-2.249,7.02-4.379,10.671-6.335c1.75-0.935,3.521-1.847,5.303-2.706c12.583-6.085,25.71-10.214,39.25-12.377
	c7.813-1.261,15.756-1.858,23.808-1.804l1.293,0.011c38.771,0.674,74.663,16.18,101.069,43.65
	C942.339,795.927,956.531,832.515,955.89,871.46z"/>
<path style="fill:#FFFFFF;" d="M853.578,869.741c29.58,18.812,27.419,57.699-3.68,74.048c-5.564,2.928-11.731,5.448-17.897,6.357
	c-6.062,0.901-7.704,3.39-7.334,8.893c0.259,3.992-0.151,8.028-0.266,12.435c-10.206-0.267-19.533-0.504-28.696-0.748
	c-0.364-0.822-0.825-1.336-0.733-1.733c3.572-15.566-3.903-22.886-18.357-26.269c-5.241-1.224-9.916-5.104-14.663-8.094
	c-2.993-1.876-5.63-4.314-8.188-6.333c7.548-7.33,14.825-14.389,20.823-20.229c11.395,4.714,21.878,9.932,32.924,13.218
	c5.176,1.54,11.8,0.393,17.178-1.349c13.12-4.283,15.77-18.318,4.317-25.789c-9.9-6.447-21.629-10.032-32.306-15.373
	c-10.222-5.126-21.211-9.508-29.932-16.611c-25.017-20.357-19.028-58.081,10.676-70.761c5.319-2.271,11.391-2.723,16.843-4.737
	c2.156-0.797,4.777-3.354,5.122-5.449c0.85-5.233,0.517-10.639,0.678-16.862c10.253,0.271,19.398,0.504,29.771,0.778
	c-0.153,5.454-0.01,10.751-0.502,15.965c-0.466,4.861,1.201,6.732,5.936,8.657c11.693,4.768,22.857,10.812,35.389,16.913
	c-8.072,9.028-14.651,16.382-20.445,22.869c-11.284-4.693-21.831-9.521-32.731-13.366c-3.841-1.356-8.58-0.735-12.833-0.298
	c-7.216,0.722-12.674,4.394-14.419,11.754c-1.755,7.452,1.875,13.327,7.934,16.867c7.187,4.207,15.01,7.354,22.663,10.75
	C831.764,860.096,843.629,863.41,853.578,869.741z"/>
<rect x="398.798" y="1308.084" style="fill:#625EF3;" width="429.436" height="78.901"/>
<rect x="452.077" y="1387.562" style="fill:#625EF3;" width="403.682" height="78.901"/>
<rect x="659.177" y="1387.562" style="fill:#625EF3;" width="332.969" height="78.901"/>
<path style="fill:#FFFFFF;" d="M714.282,1148.968c-0.829,0-1.5-0.672-1.5-1.5v-54.738c0-0.828,0.671-1.5,1.5-1.5s1.5,0.672,1.5,1.5
	v54.738C715.782,1148.296,715.111,1148.968,714.282,1148.968z"/>
<path style="fill:#FFFFFF;" d="M802.368,1467.964c-0.829,0-1.5-0.672-1.5-1.5v-54.739c0-0.828,0.671-1.5,1.5-1.5s1.5,0.672,1.5,1.5
	v54.739C803.868,1467.292,803.196,1467.964,802.368,1467.964z"/>
<path style="fill:#FFFFFF;" d="M831.31,1467.964c-0.829,0-1.5-0.672-1.5-1.5v-54.739c0-0.828,0.671-1.5,1.5-1.5
	c0.829,0,1.5,0.672,1.5,1.5v54.739C832.81,1467.292,832.139,1467.964,831.31,1467.964z"/>
<path style="fill:#FFFFFF;" d="M909.329,1467.964c-0.829,0-1.5-0.672-1.5-1.5v-54.739c0-0.828,0.671-1.5,1.5-1.5
	c0.829,0,1.5,0.672,1.5,1.5v54.739C910.829,1467.292,910.157,1467.964,909.329,1467.964z"/>
<path style="fill:#FFFFFF;" d="M588.446,1467.964c-0.829,0-1.5-0.672-1.5-1.5v-54.739c0-0.828,0.671-1.5,1.5-1.5s1.5,0.672,1.5,1.5
	v54.739C589.946,1467.292,589.274,1467.964,588.446,1467.964z"/>
<path style="fill:#FFFFFF;" d="M617.388,1467.964c-0.829,0-1.5-0.672-1.5-1.5v-54.739c0-0.828,0.671-1.5,1.5-1.5s1.5,0.672,1.5,1.5
	v54.739C618.888,1467.292,618.217,1467.964,617.388,1467.964z"/>
<path style="fill:#FFFFFF;" d="M695.407,1467.964c-0.829,0-1.5-0.672-1.5-1.5v-54.739c0-0.828,0.671-1.5,1.5-1.5
	c0.829,0,1.5,0.672,1.5,1.5v54.739C696.907,1467.292,696.235,1467.964,695.407,1467.964z"/>
<path style="fill:#FFFFFF;" d="M709.689,1386.799c-0.829,0-1.5-0.672-1.5-1.5v-54.738c0-0.828,0.671-1.5,1.5-1.5
	c0.829,0,1.5,0.672,1.5,1.5v54.738C711.189,1386.127,710.518,1386.799,709.689,1386.799z"/>
<path style="fill:#FFFFFF;" d="M740.478,1386.799c-0.829,0-1.5-0.672-1.5-1.5v-54.738c0-0.828,0.671-1.5,1.5-1.5
	c0.829,0,1.5,0.672,1.5,1.5v54.738C741.978,1386.127,741.307,1386.799,740.478,1386.799z"/>
<path style="fill:#FFFFFF;" d="M648.111,1386.799c-0.829,0-1.5-0.672-1.5-1.5v-54.738c0-0.828,0.671-1.5,1.5-1.5s1.5,0.672,1.5,1.5
	v54.738C649.611,1386.127,648.94,1386.799,648.111,1386.799z"/>
<path style="fill:#FFFFFF;" d="M678.9,1386.799c-0.829,0-1.5-0.672-1.5-1.5v-54.738c0-0.828,0.671-1.5,1.5-1.5s1.5,0.672,1.5,1.5
	v54.738C680.4,1386.127,679.729,1386.799,678.9,1386.799z"/>
<path style="fill:#FFFFFF;" d="M848.019,1309.584H361.069c-0.829,0-1.5-0.672-1.5-1.5s0.671-1.5,1.5-1.5h486.951
	c0.829,0,1.5,0.672,1.5,1.5S848.848,1309.584,848.019,1309.584z"/>
<path style="fill:#FFFFFF;" d="M996.581,1389.063H362.248c-0.829,0-1.5-0.672-1.5-1.5s0.671-1.5,1.5-1.5h634.333
	c0.829,0,1.5,0.672,1.5,1.5S997.409,1389.063,996.581,1389.063z"/>
<path style="fill:#FFFFFF;" d="M1670.337,525.591l35.637-44.817c2.803-3.526,4.33-7.897,4.33-12.402V349.92
	c0-11.005,8.921-19.926,19.925-19.926h170.884c11.005,0,19.926,8.921,19.926,19.926v155.745c0,11.005-8.921,19.926-19.926,19.926
	H1670.337z"/>
<path style="fill:#292929;" d="M1901.113,527.091h-230.776c-0.576,0-1.101-0.33-1.351-0.848c-0.251-0.519-0.182-1.135,0.177-1.585
	l35.637-44.817c2.582-3.246,4.004-7.319,4.004-11.468V349.92c0-11.814,9.611-21.425,21.426-21.425h170.884
	c11.814,0,21.426,9.611,21.426,21.425v155.745C1922.539,517.479,1912.928,527.091,1901.113,527.091z M1673.446,524.091h227.667
	c10.16,0,18.426-8.266,18.426-18.426V349.92c0-10.16-8.266-18.425-18.426-18.425h-170.884c-10.16,0-18.426,8.266-18.426,18.425
	v118.453c0,4.824-1.653,9.56-4.656,13.335L1673.446,524.091z"/>
<path style="fill:#625EF3;" d="M1803.149,475.443c-3.248,0-6.5-1.206-9.029-3.631l-47.353-45.42
	c-5.2-4.988-5.373-13.246-0.385-18.446c4.988-5.199,13.245-5.372,18.446-0.384l37.969,36.419l69.646-72.131
	c5.005-5.182,13.263-5.329,18.447-0.324c5.184,5.005,5.328,13.264,0.324,18.447l-78.678,81.486
	C1809.977,474.11,1806.566,475.443,1803.149,475.443z"/>
<path style="fill:#292929;" d="M2223.124,1467.964H276.876c-0.828,0-1.5-0.672-1.5-1.5s0.672-1.5,1.5-1.5h1946.248
	c0.828,0,1.5,0.672,1.5,1.5S2223.952,1467.964,2223.124,1467.964z"/>
</svg>
